# MagicaVoxel @ Ephtracy

# material
mtllib Inner_Gate.mtl
usemtl palette

# normals
vn -1 0 0
vn 1 0 0
vn 0 0 1
vn 0 0 -1
vn 0 -1 0
vn 0 1 0

# texcoords
vt 0.958984 0.5
vt 0.978516 0.5
vt 0.982422 0.5
vt 0.986328 0.5
vt 0.994141 0.5

# verts
v -20 0 7
v -20 0 6
v -20 0 -4
v -20 0 -5
v -20 38 6
v -20 38 -4
v -20 40 7
v -20 40 6
v -20 40 -5
v 20 0 7
v 20 0 6
v 20 0 -5
v 20 40 7
v 20 40 6
v 20 40 -5
v -20 0 7
v -20 40 7
v -16 0 7
v -16 38 7
v -8 13 7
v -8 24 7
v -7 14 7
v -7 23 7
v -5 14 7
v -5 23 7
v -4 13 7
v -4 24 7
v -1 0 7
v -1 38 7
v 1 0 7
v 1 38 7
v 4 13 7
v 4 24 7
v 5 14 7
v 5 23 7
v 7 14 7
v 7 23 7
v 8 13 7
v 8 24 7
v 16 0 7
v 16 38 7
v 20 0 7
v 20 40 7
v -20 0 -5
v -20 40 -5
v 20 0 -5
v 20 40 -5
v -20 0 7
v -16 0 7
v -1 0 7
v 1 0 7
v 16 0 7
v 20 0 7
v -20 0 6
v -16 0 6
v -1 0 6
v 1 0 6
v 16 0 6
v 19 0 6
v 20 0 6
v -20 0 -4
v 19 0 -4
v -20 0 -5
v 20 0 -5
v -20 40 7
v 20 40 7
v -20 40 6
v 20 40 6
v -20 40 -5
v 20 40 -5

# faces
f 5/5/1 2/5/1 1/5/1
f 5/1/1 3/1/1 2/1/1
f 6/3/1 4/3/1 3/3/1
f 6/1/1 3/1/1 5/1/1
f 7/5/1 5/5/1 1/5/1
f 8/3/1 6/3/1 5/3/1
f 8/5/1 5/5/1 7/5/1
f 9/3/1 4/3/1 6/3/1
f 9/3/1 6/3/1 8/3/1
f 10/5/2 11/5/2 13/5/2
f 11/3/2 12/3/2 14/3/2
f 13/5/2 11/5/2 14/5/2
f 14/3/2 12/3/2 15/3/2
f 18/5/3 17/5/3 16/5/3
f 19/5/3 17/5/3 18/5/3
f 20/2/3 19/2/3 18/2/3
f 21/2/3 19/2/3 20/2/3
f 22/5/3 21/5/3 20/5/3
f 23/5/3 21/5/3 22/5/3
f 24/5/3 22/5/3 20/5/3
f 24/4/3 23/4/3 22/4/3
f 25/5/3 21/5/3 23/5/3
f 25/4/3 23/4/3 24/4/3
f 26/2/3 20/2/3 18/2/3
f 26/5/3 24/5/3 20/5/3
f 26/5/3 25/5/3 24/5/3
f 27/5/3 21/5/3 25/5/3
f 27/5/3 25/5/3 26/5/3
f 27/2/3 19/2/3 21/2/3
f 28/2/3 26/2/3 18/2/3
f 28/2/3 27/2/3 26/2/3
f 29/5/3 17/5/3 19/5/3
f 29/2/3 27/2/3 28/2/3
f 29/2/3 19/2/3 27/2/3
f 30/5/3 29/5/3 28/5/3
f 31/5/3 17/5/3 29/5/3
f 31/5/3 29/5/3 30/5/3
f 32/2/3 31/2/3 30/2/3
f 33/2/3 31/2/3 32/2/3
f 34/5/3 33/5/3 32/5/3
f 35/5/3 33/5/3 34/5/3
f 36/5/3 34/5/3 32/5/3
f 36/4/3 35/4/3 34/4/3
f 37/5/3 33/5/3 35/5/3
f 37/4/3 35/4/3 36/4/3
f 38/2/3 32/2/3 30/2/3
f 38/5/3 36/5/3 32/5/3
f 38/5/3 37/5/3 36/5/3
f 39/5/3 33/5/3 37/5/3
f 39/5/3 37/5/3 38/5/3
f 39/2/3 31/2/3 33/2/3
f 40/2/3 38/2/3 30/2/3
f 40/2/3 39/2/3 38/2/3
f 41/5/3 17/5/3 31/5/3
f 41/2/3 39/2/3 40/2/3
f 41/2/3 31/2/3 39/2/3
f 42/5/3 41/5/3 40/5/3
f 43/5/3 17/5/3 41/5/3
f 43/5/3 41/5/3 42/5/3
f 44/3/4 45/3/4 46/3/4
f 46/3/4 45/3/4 47/3/4
f 54/5/5 49/5/5 48/5/5
f 55/2/5 50/2/5 49/2/5
f 55/5/5 49/5/5 54/5/5
f 56/5/5 51/5/5 50/5/5
f 56/2/5 50/2/5 55/2/5
f 57/2/5 52/2/5 51/2/5
f 57/5/5 51/5/5 56/5/5
f 58/5/5 53/5/5 52/5/5
f 58/2/5 52/2/5 57/2/5
f 59/5/5 53/5/5 58/5/5
f 60/5/5 53/5/5 59/5/5
f 61/1/5 57/1/5 56/1/5
f 61/1/5 55/1/5 54/1/5
f 61/1/5 56/1/5 55/1/5
f 61/1/5 59/1/5 58/1/5
f 61/1/5 58/1/5 57/1/5
f 62/3/5 60/3/5 59/3/5
f 62/1/5 59/1/5 61/1/5
f 63/3/5 62/3/5 61/3/5
f 64/3/5 60/3/5 62/3/5
f 64/3/5 62/3/5 63/3/5
f 65/5/6 66/5/6 67/5/6
f 67/5/6 66/5/6 68/5/6
f 67/3/6 68/3/6 69/3/6
f 69/3/6 68/3/6 70/3/6
