# MagicaVoxel @ Ephtracy

# material
mtllib Lantern.mtl
usemtl palette

# normals
vn -1 0 0
vn 1 0 0
vn 0 0 1
vn 0 0 -1
vn 0 -1 0
vn 0 1 0

# texcoords
vt 0.306641 0.5
vt 0.951172 0.5
vt 0.958984 0.5
vt 0.978516 0.5
vt 0.982422 0.5
vt 0.986328 0.5

# verts
v -12 0 11
v -12 0 -10
v -12 38 11
v -12 38 -10
v -8 37 8
v -8 37 -6
v -8 38 8
v -8 38 -6
v -7 38 7
v -7 38 -5
v -7 39 7
v -7 39 -5
v -5 39 5
v -5 39 -3
v -5 40 5
v -5 40 -3
v -4 0 16
v -4 0 11
v -4 28 16
v -4 28 11
v -3 0 20
v -3 0 16
v -3 12 20
v -3 12 16
v 6 9 -7
v 6 9 -8
v 6 28 -7
v 6 28 -8
v 8 7 -8
v 8 7 -9
v 8 30 -8
v 8 30 -9
v 10 3 -9
v 10 3 -10
v 10 35 -9
v 10 35 -10
v 11 28 11
v 11 28 10
v 11 36 10
v 11 37 10
v 11 37 -8
v 11 38 11
v 11 38 -8
v -10 28 11
v -10 28 10
v -10 36 10
v -10 37 10
v -10 37 -8
v -10 38 11
v -10 38 -8
v -9 3 -9
v -9 3 -10
v -9 35 -9
v -9 35 -10
v -7 7 -8
v -7 7 -9
v -7 30 -8
v -7 30 -9
v -5 9 -7
v -5 9 -8
v -5 28 -7
v -5 28 -8
v 4 0 20
v 4 0 16
v 4 12 20
v 4 12 16
v 5 0 16
v 5 0 11
v 5 28 16
v 5 28 11
v 6 39 5
v 6 39 -3
v 6 40 5
v 6 40 -3
v 8 38 7
v 8 38 -5
v 8 39 7
v 8 39 -5
v 9 37 8
v 9 37 -6
v 9 38 8
v 9 38 -6
v 13 0 11
v 13 0 -10
v 13 38 11
v 13 38 -10
v -3 0 20
v -3 12 20
v 4 0 20
v 4 12 20
v -4 0 16
v -4 28 16
v -3 0 16
v -3 12 16
v 4 0 16
v 4 12 16
v 5 0 16
v 5 28 16
v -12 0 11
v -12 38 11
v -10 28 11
v -10 38 11
v -4 0 11
v -4 28 11
v 5 0 11
v 5 28 11
v 11 28 11
v 11 38 11
v 13 0 11
v 13 38 11
v -10 28 10
v -10 36 10
v -10 37 10
v 11 28 10
v 11 36 10
v 11 37 10
v -8 37 8
v -8 38 8
v 9 37 8
v 9 38 8
v -7 38 7
v -7 39 7
v 8 38 7
v 8 39 7
v -5 39 5
v -5 40 5
v 6 39 5
v 6 40 5
v -10 37 -8
v -10 38 -8
v 11 37 -8
v 11 38 -8
v -5 39 -3
v -5 40 -3
v 6 39 -3
v 6 40 -3
v -7 38 -5
v -7 39 -5
v 8 38 -5
v 8 39 -5
v -8 37 -6
v -8 38 -6
v 9 37 -6
v 9 38 -6
v -5 9 -7
v -5 28 -7
v 6 9 -7
v 6 28 -7
v -7 7 -8
v -7 30 -8
v -5 9 -8
v -5 28 -8
v 6 9 -8
v 6 28 -8
v 8 7 -8
v 8 30 -8
v -9 3 -9
v -9 35 -9
v -7 7 -9
v -7 30 -9
v 8 7 -9
v 8 30 -9
v 10 3 -9
v 10 35 -9
v -12 0 -10
v -12 38 -10
v -9 3 -10
v -9 35 -10
v 10 3 -10
v 10 35 -10
v 13 0 -10
v 13 38 -10
v -3 0 20
v 4 0 20
v -4 0 16
v -3 0 16
v 4 0 16
v 5 0 16
v -12 0 11
v -4 0 11
v 5 0 11
v 13 0 11
v -12 0 -10
v 13 0 -10
v -5 28 -7
v 6 28 -7
v -5 28 -8
v 6 28 -8
v -7 30 -8
v 8 30 -8
v -7 30 -9
v 8 30 -9
v -9 35 -9
v 10 35 -9
v -9 35 -10
v 10 35 -10
v -9 3 -9
v 10 3 -9
v -9 3 -10
v 10 3 -10
v -7 7 -8
v 8 7 -8
v -7 7 -9
v 8 7 -9
v -5 9 -7
v 6 9 -7
v -5 9 -8
v 6 9 -8
v -3 12 20
v 4 12 20
v -3 12 16
v 4 12 16
v -4 28 16
v 5 28 16
v -10 28 11
v -4 28 11
v 5 28 11
v 11 28 11
v -10 28 10
v 11 28 10
v -10 37 10
v 11 37 10
v -8 37 8
v 9 37 8
v -8 37 -6
v 9 37 -6
v -10 37 -8
v 11 37 -8
v -12 38 11
v -10 38 11
v 11 38 11
v 13 38 11
v -8 38 8
v 9 38 8
v -7 38 7
v 8 38 7
v -7 38 -5
v 8 38 -5
v -8 38 -6
v 9 38 -6
v -10 38 -8
v 11 38 -8
v -12 38 -10
v 13 38 -10
v -7 39 7
v 8 39 7
v -5 39 5
v 6 39 5
v -5 39 -3
v 6 39 -3
v -7 39 -5
v 8 39 -5
v -5 40 5
v 6 40 5
v -5 40 -3
v 6 40 -3

# faces
f 3/2/1 2/2/1 1/2/1
f 4/2/1 2/2/1 3/2/1
f 7/5/1 6/5/1 5/5/1
f 8/5/1 6/5/1 7/5/1
f 11/4/1 10/4/1 9/4/1
f 12/4/1 10/4/1 11/4/1
f 15/3/1 14/3/1 13/3/1
f 16/3/1 14/3/1 15/3/1
f 19/2/1 18/2/1 17/2/1
f 20/2/1 18/2/1 19/2/1
f 23/2/1 22/2/1 21/2/1
f 24/2/1 22/2/1 23/2/1
f 27/6/1 26/6/1 25/6/1
f 28/6/1 26/6/1 27/6/1
f 31/6/1 30/6/1 29/6/1
f 32/6/1 30/6/1 31/6/1
f 35/2/1 34/2/1 33/2/1
f 36/2/1 34/2/1 35/2/1
f 39/2/1 38/2/1 37/2/1
f 40/2/1 39/2/1 37/2/1
f 42/2/1 40/2/1 37/2/1
f 42/2/1 41/2/1 40/2/1
f 43/2/1 41/2/1 42/2/1
f 44/2/2 45/2/2 46/2/2
f 44/2/2 46/2/2 47/2/2
f 44/2/2 47/2/2 49/2/2
f 47/2/2 48/2/2 49/2/2
f 49/2/2 48/2/2 50/2/2
f 51/2/2 52/2/2 53/2/2
f 53/2/2 52/2/2 54/2/2
f 55/6/2 56/6/2 57/6/2
f 57/6/2 56/6/2 58/6/2
f 59/6/2 60/6/2 61/6/2
f 61/6/2 60/6/2 62/6/2
f 63/2/2 64/2/2 65/2/2
f 65/2/2 64/2/2 66/2/2
f 67/2/2 68/2/2 69/2/2
f 69/2/2 68/2/2 70/2/2
f 71/3/2 72/3/2 73/3/2
f 73/3/2 72/3/2 74/3/2
f 75/4/2 76/4/2 77/4/2
f 77/4/2 76/4/2 78/4/2
f 79/5/2 80/5/2 81/5/2
f 81/5/2 80/5/2 82/5/2
f 83/2/2 84/2/2 85/2/2
f 85/2/2 84/2/2 86/2/2
f 89/2/3 88/2/3 87/2/3
f 90/2/3 88/2/3 89/2/3
f 93/2/3 92/2/3 91/2/3
f 94/2/3 92/2/3 93/2/3
f 96/2/3 92/2/3 94/2/3
f 97/2/3 96/2/3 95/2/3
f 98/2/3 92/2/3 96/2/3
f 98/2/3 96/2/3 97/2/3
f 101/2/3 100/2/3 99/2/3
f 102/2/3 100/2/3 101/2/3
f 103/2/3 101/2/3 99/2/3
f 104/2/3 101/2/3 103/2/3
f 107/2/3 106/2/3 105/2/3
f 109/2/3 107/2/3 105/2/3
f 109/2/3 108/2/3 107/2/3
f 110/2/3 108/2/3 109/2/3
f 114/1/3 112/1/3 111/1/3
f 115/6/3 113/6/3 112/6/3
f 115/1/3 112/1/3 114/1/3
f 116/6/3 113/6/3 115/6/3
f 119/5/3 118/5/3 117/5/3
f 120/5/3 118/5/3 119/5/3
f 123/4/3 122/4/3 121/4/3
f 124/4/3 122/4/3 123/4/3
f 127/3/3 126/3/3 125/3/3
f 128/3/3 126/3/3 127/3/3
f 131/2/3 130/2/3 129/2/3
f 132/2/3 130/2/3 131/2/3
f 133/3/4 134/3/4 135/3/4
f 135/3/4 134/3/4 136/3/4
f 137/4/4 138/4/4 139/4/4
f 139/4/4 138/4/4 140/4/4
f 141/5/4 142/5/4 143/5/4
f 143/5/4 142/5/4 144/5/4
f 145/3/4 146/3/4 147/3/4
f 147/3/4 146/3/4 148/3/4
f 149/6/4 150/6/4 151/6/4
f 151/6/4 150/6/4 152/6/4
f 149/6/4 151/6/4 153/6/4
f 152/6/4 150/6/4 154/6/4
f 149/6/4 153/6/4 155/6/4
f 153/6/4 154/6/4 155/6/4
f 154/6/4 150/6/4 156/6/4
f 155/6/4 154/6/4 156/6/4
f 157/6/4 158/6/4 159/6/4
f 159/6/4 158/6/4 160/6/4
f 157/6/4 159/6/4 161/6/4
f 160/6/4 158/6/4 162/6/4
f 157/6/4 161/6/4 163/6/4
f 161/6/4 162/6/4 163/6/4
f 162/6/4 158/6/4 164/6/4
f 163/6/4 162/6/4 164/6/4
f 165/2/4 166/2/4 167/2/4
f 167/2/4 166/2/4 168/2/4
f 165/2/4 167/2/4 169/2/4
f 168/2/4 166/2/4 170/2/4
f 165/2/4 169/2/4 171/2/4
f 169/2/4 170/2/4 171/2/4
f 170/2/4 166/2/4 172/2/4
f 171/2/4 170/2/4 172/2/4
f 176/2/5 174/2/5 173/2/5
f 177/2/5 174/2/5 176/2/5
f 180/2/5 176/2/5 175/2/5
f 180/2/5 178/2/5 177/2/5
f 180/2/5 177/2/5 176/2/5
f 181/2/5 178/2/5 180/2/5
f 183/2/5 180/2/5 179/2/5
f 183/2/5 182/2/5 181/2/5
f 183/2/5 181/2/5 180/2/5
f 184/2/5 182/2/5 183/2/5
f 187/6/5 186/6/5 185/6/5
f 188/6/5 186/6/5 187/6/5
f 191/6/5 190/6/5 189/6/5
f 192/6/5 190/6/5 191/6/5
f 195/2/5 194/2/5 193/2/5
f 196/2/5 194/2/5 195/2/5
f 197/2/6 198/2/6 199/2/6
f 199/2/6 198/2/6 200/2/6
f 201/6/6 202/6/6 203/6/6
f 203/6/6 202/6/6 204/6/6
f 205/6/6 206/6/6 207/6/6
f 207/6/6 206/6/6 208/6/6
f 209/2/6 210/2/6 211/2/6
f 211/2/6 210/2/6 212/2/6
f 213/2/6 214/2/6 216/2/6
f 216/2/6 214/2/6 217/2/6
f 215/2/6 216/2/6 219/2/6
f 217/2/6 218/2/6 219/2/6
f 216/2/6 217/2/6 219/2/6
f 219/2/6 218/2/6 220/2/6
f 221/6/6 222/6/6 223/6/6
f 223/6/6 222/6/6 224/6/6
f 221/6/6 223/6/6 225/6/6
f 224/6/6 222/6/6 226/6/6
f 221/6/6 225/6/6 227/6/6
f 225/6/6 226/6/6 227/6/6
f 226/6/6 222/6/6 228/6/6
f 227/6/6 226/6/6 228/6/6
f 233/5/6 234/5/6 235/5/6
f 235/5/6 234/5/6 236/5/6
f 233/5/6 235/5/6 237/5/6
f 236/5/6 234/5/6 238/5/6
f 233/5/6 237/5/6 239/5/6
f 237/5/6 238/5/6 239/5/6
f 238/5/6 234/5/6 240/5/6
f 239/5/6 238/5/6 240/5/6
f 229/2/6 230/2/6 241/2/6
f 231/2/6 232/2/6 242/2/6
f 229/2/6 241/2/6 243/2/6
f 241/2/6 242/2/6 243/2/6
f 242/2/6 232/2/6 244/2/6
f 243/2/6 242/2/6 244/2/6
f 245/4/6 246/4/6 247/4/6
f 247/4/6 246/4/6 248/4/6
f 245/4/6 247/4/6 249/4/6
f 248/4/6 246/4/6 250/4/6
f 245/4/6 249/4/6 251/4/6
f 249/4/6 250/4/6 251/4/6
f 250/4/6 246/4/6 252/4/6
f 251/4/6 250/4/6 252/4/6
f 253/3/6 254/3/6 255/3/6
f 255/3/6 254/3/6 256/3/6
