# MagicaVoxel @ Ephtracy

# material
mtllib RightArm.mtl
usemtl palette

# normals
vn -1 0 0
vn 1 0 0
vn 0 0 1
vn 0 0 -1
vn 0 -1 0
vn 0 1 0

# texcoords
vt 0.0605469 0.5
vt 0.873047 0.5
vt 0.966797 0.5

# verts
v -3 17 3
v -3 17 -4
v -3 18 2
v -3 18 -3
v -3 21 2
v -3 21 -3
v -3 22 3
v -3 22 -4
v -2 12 3
v -2 12 -4
v -2 16 3
v -2 16 -4
v -2 17 3
v -2 17 -4
v 2 12 3
v 2 12 -4
v 2 16 3
v 2 16 -4
v 2 21 3
v 2 21 -4
v 2 22 3
v 2 22 -4
v 3 16 3
v 3 16 -4
v 3 21 3
v 3 21 -4
v -3 17 3
v -3 22 3
v -2 12 3
v -2 16 3
v -2 17 3
v 2 12 3
v 2 16 3
v 2 21 3
v 2 22 3
v 3 16 3
v 3 21 3
v -3 17 -4
v -3 22 -4
v -2 12 -4
v -2 16 -4
v -2 17 -4
v 2 12 -4
v 2 16 -4
v 2 21 -4
v 2 22 -4
v 3 16 -4
v 3 21 -4
v -2 12 3
v 2 12 3
v -2 12 -4
v 2 12 -4
v 2 16 3
v 3 16 3
v 2 16 -4
v 3 16 -4
v -3 17 3
v -2 17 3
v -3 17 -4
v -2 17 -4
v 2 21 3
v 3 21 3
v 2 21 -4
v 3 21 -4
v -3 22 3
v 2 22 3
v -3 22 -4
v 2 22 -4

# faces
f 3/3/1 2/3/1 1/3/1
f 4/3/1 2/3/1 3/3/1
f 5/3/1 3/3/1 1/3/1
f 5/2/1 4/2/1 3/2/1
f 6/3/1 2/3/1 4/3/1
f 6/2/1 4/2/1 5/2/1
f 7/3/1 5/3/1 1/3/1
f 7/3/1 6/3/1 5/3/1
f 8/3/1 2/3/1 6/3/1
f 8/3/1 6/3/1 7/3/1
f 11/1/1 10/1/1 9/1/1
f 12/1/1 10/1/1 11/1/1
f 13/3/1 12/3/1 11/3/1
f 14/3/1 12/3/1 13/3/1
f 15/1/2 16/1/2 17/1/2
f 17/1/2 16/1/2 18/1/2
f 19/3/2 20/3/2 21/3/2
f 21/3/2 20/3/2 22/3/2
f 23/3/2 24/3/2 25/3/2
f 25/3/2 24/3/2 26/3/2
f 31/3/3 28/3/3 27/3/3
f 32/1/3 30/1/3 29/1/3
f 33/3/3 31/3/3 30/3/3
f 33/1/3 30/1/3 32/1/3
f 34/3/3 28/3/3 31/3/3
f 34/3/3 31/3/3 33/3/3
f 35/3/3 28/3/3 34/3/3
f 36/3/3 34/3/3 33/3/3
f 37/3/3 34/3/3 36/3/3
f 38/3/4 39/3/4 42/3/4
f 40/1/4 41/1/4 43/1/4
f 41/3/4 42/3/4 44/3/4
f 43/1/4 41/1/4 44/1/4
f 42/3/4 39/3/4 45/3/4
f 44/3/4 42/3/4 45/3/4
f 45/3/4 39/3/4 46/3/4
f 44/3/4 45/3/4 47/3/4
f 47/3/4 45/3/4 48/3/4
f 51/1/5 50/1/5 49/1/5
f 52/1/5 50/1/5 51/1/5
f 55/3/5 54/3/5 53/3/5
f 56/3/5 54/3/5 55/3/5
f 59/3/5 58/3/5 57/3/5
f 60/3/5 58/3/5 59/3/5
f 61/3/6 62/3/6 63/3/6
f 63/3/6 62/3/6 64/3/6
f 65/3/6 66/3/6 67/3/6
f 67/3/6 66/3/6 68/3/6
